<svg width="20" height="20" viewBox="0 0 20 20" fill="none" xmlns="http://www.w3.org/2000/svg">
<path d="M9.90349 0.636055C9.24412 0.650117 9.05349 1.36887 8.81756 1.95637C8.58162 2.54387 7.17693 5.73918 6.26756 7.35168C5.35818 8.96418 4.12693 11.0767 4.30193 14.097C4.47849 17.1173 6.82381 19.372 10.1097 19.347C13.0801 19.3251 15.6785 17.6126 15.7847 13.8923C15.8722 10.8126 14.1785 8.15168 13.3426 6.52355C12.8457 5.5548 11.2191 2.31262 11.0472 1.91105C10.7394 1.1923 10.6082 0.62043 9.90349 0.636055Z" fill="#4EC1F5"/>
<path d="M7.40234 10.0658C6.93984 10.0861 5.83984 11.5173 5.83984 13.322C5.83984 15.1267 6.69141 16.4595 7.62109 16.2689C8.69922 16.0486 8.52266 14.9486 8.30234 14.0689C8.11328 13.3126 7.81797 12.4189 7.75234 11.6048C7.71172 11.0783 7.88672 10.0439 7.40234 10.0658Z" fill="#B3E2FB"/>
</svg>
