<svg width="20" height="21" viewBox="0 0 20 21" fill="none" xmlns="http://www.w3.org/2000/svg">
<mask id="path-1-inside-1_231_6333" fill="white">
<path d="M9.99947 2.45538L8.97563 1.41759C6.5708 -1.01683 2.16235 -0.177215 0.57064 2.8834C-0.175808 4.32341 -0.344861 6.40134 1.01946 9.05504C2.33378 11.6091 5.06719 14.6673 9.99947 18C14.9317 14.6673 17.664 11.6091 18.9807 9.05504C20.3438 6.40017 20.1771 4.32341 19.4283 2.88457C17.8366 -0.176042 13.4281 -1.018 11.0233 1.41641L9.99947 2.45538Z"/>
</mask>
<path d="M9.99947 2.45538L8.97563 1.41759C6.5708 -1.01683 2.16235 -0.177215 0.57064 2.8834C-0.175808 4.32341 -0.344861 6.40134 1.01946 9.05504C2.33378 11.6091 5.06719 14.6673 9.99947 18C14.9317 14.6673 17.664 11.6091 18.9807 9.05504C20.3438 6.40017 20.1771 4.32341 19.4283 2.88457C17.8366 -0.176042 13.4281 -1.018 11.0233 1.41641L9.99947 2.45538Z" stroke="#586A74" stroke-width="3" mask="url(#path-1-inside-1_231_6333)"/>
</svg>
