<svg width="30" height="31" viewBox="0 0 30 31" fill="none" xmlns="http://www.w3.org/2000/svg">
<path d="M0.00390625 8.27998C0.00390625 4.13827 3.36142 0.780762 7.50312 0.780762H15.0021V15.7792H7.50312C3.36142 15.7792 0.00390625 12.4217 0.00390625 8.27998Z" fill="#FFB306"/>
<path d="M30 23.283C30 27.4247 26.6425 30.7822 22.5008 30.7822L15.0018 30.7822L15.0018 15.7838L22.5008 15.7838C26.6425 15.7838 30 19.1413 30 23.283Z" fill="#009CD9"/>
<path d="M15.002 23.283C15.002 27.4247 11.6444 30.7822 7.50274 30.7822L0.00378418 30.7822L0.00378487 22.9216C0.00378521 18.9795 3.19949 15.7838 7.1416 15.7838L7.50274 15.7838C11.6444 15.7838 15.002 19.1413 15.002 23.283Z" fill="#FF6701"/>
<path d="M15.002 8.27998C15.002 4.13827 18.3595 0.780762 22.5012 0.780762L30.0001 0.780762V8.64138C30.0001 12.5835 26.8044 15.7792 22.8623 15.7792H22.5012C18.3595 15.7792 15.002 12.4217 15.002 8.27998Z" fill="#0DB25A"/>
</svg>
