<svg width="18" height="22" viewBox="0 0 18 22" fill="none" xmlns="http://www.w3.org/2000/svg">
<path d="M11.358 0.785706H6.64369C5.77583 0.785706 5.07227 1.48926 5.07227 2.35713V3.14285C5.07227 4.01072 5.77583 4.71428 6.64369 4.71428H11.358C12.2258 4.71428 12.9294 4.01072 12.9294 3.14285V2.35713C12.9294 1.48926 12.2258 0.785706 11.358 0.785706Z" stroke="#102938" stroke-width="1.5" stroke-linecap="round" stroke-linejoin="round"/>
<path d="M13.3214 2.35712H15.6786C16.0953 2.35712 16.4951 2.52268 16.7897 2.81737C17.0844 3.11208 17.25 3.51177 17.25 3.92855V19.6428C17.25 20.0596 17.0844 20.4593 16.7897 20.754C16.4951 21.0486 16.0953 21.2143 15.6786 21.2143H2.32143C1.90465 21.2143 1.50496 21.0486 1.21026 20.754C0.915566 20.4593 0.75 20.0596 0.75 19.6428V3.92855C0.75 3.51177 0.915566 3.11208 1.21026 2.81737C1.50496 2.52268 1.90465 2.35712 2.32143 2.35712H4.67857" stroke="#102938" stroke-width="1.5" stroke-linecap="round" stroke-linejoin="round"/>
<path d="M5.85742 14.1431L8.21456 15.7145L12.9289 9.42877" stroke="#102938" stroke-width="1.5" stroke-linecap="round" stroke-linejoin="round"/>
</svg>
