<svg width="40" height="35" viewBox="0 0 40 35" fill="none" xmlns="http://www.w3.org/2000/svg">
<path d="M9.88013 18.906C10.1745 18.5173 11.0281 18.3713 11.6631 18.6011L31.5531 25.799C32.4643 26.1288 32.201 26.9081 31.1369 27.0307L1.10742 30.4916L9.88013 18.906Z" fill="url(#paint0_linear_4647_32981)"/>
<path d="M0.746094 30.034L0.746097 19.534H9.74609L1.64609 30.334C1.35779 30.7184 0.746094 30.5145 0.746094 30.034Z" fill="#FF6701"/>
<path d="M1.74609 4.49158C1.74609 2.83472 3.08924 1.49158 4.74609 1.49158H30.7461C32.403 1.49158 33.7461 2.83472 33.7461 4.49158V16.4916C33.7461 18.1484 32.403 19.4916 30.7461 19.4916H1.74609V4.49158Z" fill="white"/>
<path d="M1.74609 4.49158C1.74609 2.83472 3.08924 1.49158 4.74609 1.49158H30.7461C32.403 1.49158 33.7461 2.83472 33.7461 4.49158V16.4916C33.7461 18.1484 32.403 19.4916 30.7461 19.4916H1.74609V4.49158Z" stroke="#FF6701" stroke-width="2"/>
<defs>
<linearGradient id="paint0_linear_4647_32981" x1="17.325" y1="9.14918" x2="-19.4565" y2="23.0624" gradientUnits="userSpaceOnUse">
<stop stop-opacity="0"/>
<stop offset="1"/>
</linearGradient>
</defs>
</svg>
