<svg width="39" height="35" viewBox="0 0 39 35" fill="none" xmlns="http://www.w3.org/2000/svg">
<path d="M9.13404 18.906C9.42839 18.5173 10.282 18.3713 10.917 18.6011L30.807 25.799C31.7182 26.1288 31.4549 26.9081 30.3908 27.0307L0.361328 30.4916L9.13404 18.906Z" fill="url(#paint0_linear_4634_3822)"/>
<path d="M0 30.034L3.46562e-06 19.534H9L0.9 30.334C0.611697 30.7184 0 30.5145 0 30.034Z" fill="#FF6701"/>
<path d="M4 1.49158H30C31.6569 1.49158 33 2.83472 33 4.49158V16.4916C33 18.1484 31.6569 19.4916 30 19.4916H1V4.49158C1 2.83472 2.34315 1.49158 4 1.49158Z" fill="white"/>
<path d="M4 1.49158H30C31.6569 1.49158 33 2.83472 33 4.49158V16.4916C33 18.1484 31.6569 19.4916 30 19.4916H1V4.49158C1 2.83472 2.34315 1.49158 4 1.49158Z" stroke="#FF6701" stroke-width="2"/>
<path d="M9.20215 15.4916V13.2635H5.16504V12.2162L9.41162 6.18591H10.3447V12.2162H11.6016V13.2635H10.3447V15.4916H9.20215ZM9.20215 12.2162V8.02039L6.28857 12.2162H9.20215ZM12.7759 10.9022C12.7759 9.80196 12.888 8.91752 13.1123 8.2489C13.3408 7.57605 13.6772 7.05766 14.1216 6.69373C14.5701 6.32979 15.133 6.14783 15.8101 6.14783C16.3094 6.14783 16.7474 6.24939 17.124 6.45251C17.5007 6.65141 17.8117 6.94128 18.0571 7.32214C18.3026 7.69877 18.4951 8.16003 18.6348 8.70593C18.7744 9.2476 18.8442 9.9797 18.8442 10.9022C18.8442 11.994 18.7321 12.8763 18.5078 13.5492C18.2835 14.2178 17.9471 14.7362 17.4985 15.1044C17.0542 15.4683 16.4914 15.6503 15.8101 15.6503C14.9129 15.6503 14.2083 15.3287 13.6963 14.6854C13.0827 13.911 12.7759 12.6499 12.7759 10.9022ZM13.9502 10.9022C13.9502 12.4299 14.1279 13.4476 14.4834 13.9554C14.8431 14.459 15.2853 14.7108 15.8101 14.7108C16.3348 14.7108 16.7749 14.4569 17.1304 13.9491C17.4901 13.4413 17.6699 12.4257 17.6699 10.9022C17.6699 9.37032 17.4901 8.35258 17.1304 7.849C16.7749 7.34542 16.3306 7.09363 15.7974 7.09363C15.2726 7.09363 14.8537 7.3158 14.5405 7.76013C14.147 8.32719 13.9502 9.37455 13.9502 10.9022ZM20.3613 8.75037H22.1387L23.9097 14.1459L25.8774 8.75037H27.5215V15.4916H26.3789V10.0643L24.3857 15.4916H23.3638L21.4785 9.80408V15.4916H20.3613V8.75037Z" fill="black"/>
<defs>
<linearGradient id="paint0_linear_4634_3822" x1="16.5789" y1="9.14918" x2="-20.2026" y2="23.0624" gradientUnits="userSpaceOnUse">
<stop stop-opacity="0"/>
<stop offset="1"/>
</linearGradient>
</defs>
</svg>
