<svg width="15" height="15" viewBox="0 0 15 15" fill="none" xmlns="http://www.w3.org/2000/svg">
<g clip-path="url(#clip0_5401_131)">
<circle cx="7.66406" cy="7.93811" r="6.25" stroke="#88959C" stroke-width="1.5"/>
<path d="M7.48615 4.04749C8.8462 4.04749 10.1852 4.66707 10.1852 6.14906C10.1852 7.51571 8.60197 8.04129 8.26196 8.53512C8.0067 8.90246 8.09195 9.41861 7.39062 9.41861C6.93376 9.41861 6.71059 9.05103 6.71059 8.7147C6.71059 7.46313 8.56963 7.17988 8.56963 6.14931C8.56963 5.58206 8.18799 5.24573 7.55009 5.24573C6.19004 5.24573 6.72112 6.63272 5.69106 6.63272C5.3192 6.63272 5 6.41197 5 5.99181C4.99975 4.96099 6.18954 4.04749 7.48615 4.04749ZM7.43324 10.1009C7.91066 10.1009 8.30459 10.4894 8.30459 10.9631C8.30459 11.4368 7.91142 11.8253 7.43324 11.8253C6.95507 11.8253 6.56165 11.4373 6.56165 10.9631C6.56165 10.4896 6.95507 10.1009 7.43324 10.1009Z" fill="#88959C"/>
</g>
<defs>
<clipPath id="clip0_5401_131">
<rect width="14" height="14" fill="white" transform="translate(0.664062 0.93811)"/>
</clipPath>
</defs>
</svg>
