<svg width="18" height="19" viewBox="0 0 18 19" fill="none" xmlns="http://www.w3.org/2000/svg">
<path d="M2.70117 15.6607V3.90236C2.70117 3.67044 2.88919 3.48242 3.12111 3.48242H14.8795C15.1114 3.48242 15.2994 3.67044 15.2994 3.90236V15.6607C15.2994 15.8927 15.1114 16.0807 14.8795 16.0807H3.12111C2.88919 16.0807 2.70117 15.8927 2.70117 15.6607Z" stroke="#102938"/>
<path d="M2.70381 4.18105C3.09035 4.18105 3.40371 3.86769 3.40371 3.48115C3.40371 3.09461 3.09035 2.78125 2.70381 2.78125C2.31727 2.78125 2.00391 3.09461 2.00391 3.48115C2.00391 3.86769 2.31727 4.18105 2.70381 4.18105Z" stroke="#102938"/>
<path d="M15.3015 16.7797C15.688 16.7797 16.0014 16.4663 16.0014 16.0798C16.0014 15.6932 15.688 15.3799 15.3015 15.3799C14.9149 15.3799 14.6016 15.6932 14.6016 16.0798C14.6016 16.4663 14.9149 16.7797 15.3015 16.7797Z" stroke="#102938"/>
</svg>
