<svg width="25" height="22" viewBox="0 0 25 22" fill="none" xmlns="http://www.w3.org/2000/svg">
<path fill-rule="evenodd" clip-rule="evenodd" d="M1.91341 9.28305C8.39631 6.23971 12.7194 4.23381 14.8823 3.26441C21.0583 0.497079 22.3415 0.0159708 23.1777 0.000157445C23.3618 -0.00319689 23.7728 0.0456805 24.0396 0.278567C24.2647 0.475036 24.3265 0.740987 24.3563 0.927393C24.3861 1.1138 24.423 1.53884 24.3936 1.87044C24.0592 5.65893 22.611 14.8527 21.874 19.0959C21.5623 20.8915 20.9485 21.4933 20.3543 21.5523C19.0627 21.6802 18.0824 20.6327 16.8313 19.7495C14.8739 18.3671 13.7682 17.5069 11.8686 16.158C9.67279 14.5992 11.0965 13.7424 12.3476 12.3422C12.675 11.9756 18.3653 6.39976 18.4751 5.89373C18.4889 5.83048 18.5018 5.59472 18.3715 5.47013C18.2412 5.34554 18.0495 5.38818 17.9112 5.42221C17.715 5.47013 14.5883 7.69693 8.53108 12.1021C7.64377 12.7586 6.83963 13.0787 6.11956 13.062C5.32565 13.0433 3.79833 12.5784 2.66284 12.1807C1.27028 11.6929 0.163257 11.4351 0.259772 10.6066C0.31003 10.1753 0.86154 9.73397 1.9143 9.28305H1.91341Z" fill="#2AABEE"/>
</svg>
