<svg width="14" height="17" viewBox="0 0 14 17" fill="none" xmlns="http://www.w3.org/2000/svg">
<path fill-rule="evenodd" clip-rule="evenodd" d="M3.88299 0.78125C3.65355 0.78125 3.44636 0.91848 3.35684 1.12974L0.785413 7.19831L0.783002 7.2041C0.71187 7.37724 0.68435 7.5652 0.702876 7.75147C0.72139 7.93773 0.785379 8.1166 0.889207 8.27235C0.993036 8.42808 1.13354 8.55595 1.29835 8.64468C1.46316 8.73342 1.64725 8.78031 1.83443 8.78124L4.26829 8.78125L2.19069 16.0528C2.11994 16.3005 2.22357 16.5648 2.44376 16.6984C2.66393 16.832 2.94626 16.8017 3.13318 16.6246L12.9504 7.32174L12.9538 7.31845C13.1169 7.1613 13.2296 6.95922 13.2777 6.73788C13.3257 6.51654 13.3068 6.28592 13.2236 6.0753C13.1403 5.86468 12.9963 5.68354 12.8099 5.55488C12.6235 5.42623 12.403 5.35588 12.1766 5.35274L8.80758 5.35268L10.6798 1.60823C10.7684 1.43109 10.7589 1.22073 10.6548 1.05226C10.5507 0.883794 10.3667 0.78125 10.1687 0.78125H3.88299Z" fill="#FF6701"/>
</svg>
