<svg width="18" height="19" viewBox="0 0 18 19" fill="none" xmlns="http://www.w3.org/2000/svg">
<path d="M14.25 15.7812H3.75C2.92157 15.7812 2.25 15.1097 2.25 14.2812V7.53125C2.25 6.70282 2.92157 6.03125 3.75 6.03125H14.25C15.0784 6.03125 15.75 6.70282 15.75 7.53125V14.2812C15.75 15.1097 15.0784 15.7812 14.25 15.7812Z" stroke="#102938"/>
<path d="M12.377 11.2812C12.1699 11.2812 12.002 11.1133 12.002 10.9062C12.002 10.6992 12.1699 10.5312 12.377 10.5312C12.584 10.5312 12.752 10.6992 12.752 10.9062C12.752 11.1133 12.584 11.2812 12.377 11.2812Z" fill="#102938" stroke="#102938" stroke-linecap="round" stroke-linejoin="round"/>
<path d="M13.5 6.0318V4.98422C13.5 3.99867 12.5658 3.28093 11.6135 3.53486L3.3635 5.73487C2.70688 5.90997 2.25 6.50465 2.25 7.18422V7.5318" stroke="#102938"/>
</svg>
