<svg width="32" height="23" viewBox="0 0 32 23" fill="none" xmlns="http://www.w3.org/2000/svg">
<path d="M31.3296 4.26857C30.9609 2.91556 29.8782 1.85229 28.5005 1.49011C26.0033 0.833008 15.9961 0.833008 15.9961 0.833008C15.9961 0.833008 5.98885 0.833008 3.49428 1.49011C2.11661 1.85229 1.03396 2.91556 0.665175 4.26857C-0.00390625 6.71847 -0.00390625 11.833 -0.00390625 11.833C-0.00390625 11.833 -0.00390625 16.9475 0.665175 19.3974C1.03396 20.7505 2.11661 21.8137 3.49428 22.1759C5.98885 22.833 15.9961 22.833 15.9961 22.833C15.9961 22.833 26.0033 22.833 28.4979 22.1759C29.8756 21.8137 30.9582 20.7505 31.327 19.3974C31.9961 16.9475 31.9961 11.833 31.9961 11.833C31.9961 11.833 31.9961 6.71847 31.327 4.26857H31.3296Z" fill="#FF0000"/>
<path d="M12.7988 16.5462V7.11914L21.1149 11.8327L12.7988 16.5462Z" fill="white"/>
</svg>
